<svg width="335" height="47" viewBox="0 0 335 47" fill="none" xmlns="http://www.w3.org/2000/svg">
<path d="M13.8398 23.9482L6.09457 31.8883V43.03H0V0H6.09457V24.0763L29.2032 0H36.1865L18.0298 19.3379L37.4562 43.03H30.3459L13.8398 23.9482Z" fill="#FF6060"/>
<path d="M81.8958 39.5722L84.3082 34.9619C87.1015 36.8828 91.4185 38.2916 95.6085 38.2916C101.068 38.2916 103.227 36.6267 103.227 33.8093C103.227 26.5095 82.7845 32.7847 82.7845 19.8501C82.7845 13.9591 87.9903 10.1172 96.2434 10.1172C100.433 10.1172 105.258 11.2698 108.052 13.0627L105.512 17.673C102.592 15.752 99.4176 15.1117 96.2434 15.1117C91.1646 15.1117 88.6252 17.0327 88.6252 19.594C88.6252 27.2779 109.067 21.0027 109.067 33.6812C109.067 39.5722 103.735 43.2861 95.1007 43.2861C89.8949 43.4142 84.5621 41.7493 81.8958 39.5722Z" fill="#FF6060"/>
<path d="M145 23.3079V43.03H139.413V38.6758C137.509 41.6213 133.827 43.2861 128.748 43.2861C121.384 43.2861 116.813 39.3161 116.813 33.6812C116.813 28.4305 120.114 24.2044 129.764 24.2044H139.032V23.0518C139.032 18.0572 136.112 15.2398 130.398 15.2398C126.589 15.2398 122.653 16.6485 120.114 18.6976L117.701 14.2153C121.003 11.5259 125.828 9.98911 131.033 9.98911C140.048 10.1172 145 14.4714 145 23.3079ZM139.159 33.0409V28.4305H130.145C124.304 28.4305 122.653 30.7357 122.653 33.4251C122.653 36.6267 125.32 38.6758 129.764 38.6758C134.208 38.8038 137.763 36.8828 139.159 33.0409Z" fill="#FF6060"/>
<path d="M63.1042 34.4496V43.158L66.7864 40.9809V32.2725L63.1042 34.4496Z" fill="#FF6060"/>
<path d="M73.2619 23.8202L58.1524 14.9837L49.7724 10.1172L41.5193 24.5886L41.6463 38.1635L56.6288 47L58.1524 46.1035V33.297L64.8819 21.3869L71.7383 25.357V38.1635L73.2619 37.267V23.8202Z" fill="#FF6060"/>
<path d="M276.993 31H278.253L274.437 22.6H273.249L269.445 31H270.681L271.605 28.9H276.069L276.993 31ZM272.025 27.94L273.837 23.824L275.649 27.94H272.025ZM286.005 22.6H282.729V31H283.929V28.456H286.005C288.189 28.456 289.509 27.352 289.509 25.528C289.509 23.704 288.189 22.6 286.005 22.6ZM285.969 27.412H283.929V23.644H285.969C287.505 23.644 288.309 24.328 288.309 25.528C288.309 26.728 287.505 27.412 285.969 27.412ZM298.196 31L296.204 28.18C297.38 27.76 298.052 26.824 298.052 25.528C298.052 23.704 296.732 22.6 294.548 22.6H291.272V31H292.472V28.444H294.548C294.728 28.444 294.908 28.432 295.076 28.42L296.888 31H298.196ZM294.512 27.424H292.472V23.644H294.512C296.048 23.644 296.852 24.328 296.852 25.528C296.852 26.728 296.048 27.424 294.512 27.424ZM303.782 31.096C306.338 31.096 308.234 29.272 308.234 26.8C308.234 24.328 306.338 22.504 303.782 22.504C301.202 22.504 299.306 24.34 299.306 26.8C299.306 29.26 301.202 31.096 303.782 31.096ZM303.782 30.028C301.898 30.028 300.506 28.66 300.506 26.8C300.506 24.94 301.898 23.572 303.782 23.572C305.642 23.572 307.034 24.94 307.034 26.8C307.034 28.66 305.642 30.028 303.782 30.028ZM313.345 22.6H310.069V31H311.269V28.456H313.345C315.529 28.456 316.849 27.352 316.849 25.528C316.849 23.704 315.529 22.6 313.345 22.6ZM313.309 27.412H311.269V23.644H313.309C314.845 23.644 315.649 24.328 315.649 25.528C315.649 26.728 314.845 27.412 313.309 27.412ZM322.521 31.096C325.077 31.096 326.973 29.272 326.973 26.8C326.973 24.328 325.077 22.504 322.521 22.504C319.941 22.504 318.045 24.34 318.045 26.8C318.045 29.26 319.941 31.096 322.521 31.096ZM322.521 30.028C320.637 30.028 319.245 28.66 319.245 26.8C319.245 24.94 320.637 23.572 322.521 23.572C324.381 23.572 325.773 24.94 325.773 26.8C325.773 28.66 324.381 30.028 322.521 30.028ZM331.255 31.096C333.475 31.096 334.507 29.992 334.507 28.708C334.507 25.624 329.419 26.908 329.419 24.856C329.419 24.124 330.031 23.524 331.459 23.524C332.203 23.524 333.031 23.74 333.763 24.208L334.159 23.248C333.463 22.768 332.443 22.504 331.459 22.504C329.251 22.504 328.243 23.608 328.243 24.904C328.243 28.024 333.331 26.728 333.331 28.78C333.331 29.512 332.707 30.076 331.255 30.076C330.175 30.076 329.107 29.668 328.483 29.104L328.039 30.04C328.711 30.664 329.971 31.096 331.255 31.096Z" fill="#FF6060"/>
<path d="M206.436 28.9H201.972L201.048 31H199.812L203.616 22.6H204.804L208.62 31H207.36L206.436 28.9ZM206.016 27.94L204.204 23.824L202.392 27.94H206.016ZM213.512 31.096C212.672 31.096 211.912 30.912 211.232 30.544C210.56 30.168 210.032 29.656 209.648 29.008C209.264 28.352 209.072 27.616 209.072 26.8C209.072 25.984 209.264 25.252 209.648 24.604C210.032 23.948 210.564 23.436 211.244 23.068C211.924 22.692 212.684 22.504 213.524 22.504C214.18 22.504 214.78 22.616 215.324 22.84C215.868 23.056 216.332 23.38 216.716 23.812L215.936 24.568C215.304 23.904 214.516 23.572 213.572 23.572C212.948 23.572 212.384 23.712 211.88 23.992C211.376 24.272 210.98 24.66 210.692 25.156C210.412 25.644 210.272 26.192 210.272 26.8C210.272 27.408 210.412 27.96 210.692 28.456C210.98 28.944 211.376 29.328 211.88 29.608C212.384 29.888 212.948 30.028 213.572 30.028C214.508 30.028 215.296 29.692 215.936 29.02L216.716 29.776C216.332 30.208 215.864 30.536 215.312 30.76C214.768 30.984 214.168 31.096 213.512 31.096ZM222.008 31.096C221.168 31.096 220.408 30.912 219.728 30.544C219.056 30.168 218.528 29.656 218.144 29.008C217.76 28.352 217.568 27.616 217.568 26.8C217.568 25.984 217.76 25.252 218.144 24.604C218.528 23.948 219.06 23.436 219.74 23.068C220.42 22.692 221.18 22.504 222.02 22.504C222.676 22.504 223.276 22.616 223.82 22.84C224.364 23.056 224.828 23.38 225.212 23.812L224.432 24.568C223.8 23.904 223.012 23.572 222.068 23.572C221.444 23.572 220.88 23.712 220.376 23.992C219.872 24.272 219.476 24.66 219.188 25.156C218.908 25.644 218.768 26.192 218.768 26.8C218.768 27.408 218.908 27.96 219.188 28.456C219.476 28.944 219.872 29.328 220.376 29.608C220.88 29.888 221.444 30.028 222.068 30.028C223.004 30.028 223.792 29.692 224.432 29.02L225.212 29.776C224.828 30.208 224.36 30.536 223.808 30.76C223.264 30.984 222.664 31.096 222.008 31.096ZM230.369 31.096C229.249 31.096 228.377 30.776 227.753 30.136C227.129 29.496 226.817 28.576 226.817 27.376V22.6H228.017V27.328C228.017 29.128 228.805 30.028 230.381 30.028C231.149 30.028 231.737 29.808 232.145 29.368C232.553 28.92 232.757 28.24 232.757 27.328V22.6H233.921V27.376C233.921 28.584 233.609 29.508 232.985 30.148C232.361 30.78 231.489 31.096 230.369 31.096ZM242.477 29.956V31H236.381V22.6H242.309V23.644H237.581V26.224H241.793V27.244H237.581V29.956H242.477ZM244.42 22.6H245.62V31H244.42V22.6ZM248.135 22.6H249.335V29.956H253.883V31H248.135V22.6Z" fill="#FF6060"/>
<path d="M199.824 32.2H254.003V32.8H199.824V32.2Z" fill="#FF6060"/>
</svg>
